<svg class="icon icon-cart" viewBox="0 0 31 31" fill="none">
  <path d="M6.74906 4.14814H29.9527L26.7958 15.1667H8.44896M28.3742 21.4629H9.4328L6.27589 1H1.54053M11.0113 27.7592C11.0113 28.6286 10.3045 29.3333 9.4328 29.3333C8.56105 29.3333 7.85434 28.6286 7.85434 27.7592C7.85434 26.8899 8.56105 26.1852 9.4328 26.1852C10.3045 26.1852 11.0113 26.8899 11.0113 27.7592ZM28.3742 27.7592C28.3742 28.6286 27.6676 29.3333 26.7958 29.3333C25.924 29.3333 25.2173 28.6286 25.2173 27.7592C25.2173 26.8899 25.924 26.1852 26.7958 26.1852C27.6676 26.1852 28.3742 26.8899 28.3742 27.7592Z" stroke="#074058" stroke-width="2" stroke-linecap="round" stroke-linejoin="round"></path>
</svg>